<svg width="72" height="54" viewBox="0 0 72 54" fill="none" xmlns="http://www.w3.org/2000/svg">
<g clip-path="url(#clip0)">
<path d="M4.90909 54.0001H16.3636V26.1819L0 13.9092V49.091C0 51.8074 2.20091 54.0001 4.90909 54.0001Z" fill="black"/>
<path d="M55.6365 54.0001H67.091C69.8074 54.0001 72.0001 51.7992 72.0001 49.091V13.9092L55.6365 26.1819" fill="black"/>
<path d="M55.6365 4.9091V26.1818L72.0001 13.9091V7.36365C72.0001 1.29274 65.0701 -2.16817 60.2183 1.47274" fill="black"/>
<path d="M16.3635 26.1819V4.90918L35.9999 19.6365L55.6362 4.90918V26.1819L35.9999 40.9092" fill="black"/>
<path d="M0 7.36365V13.9091L16.3636 26.1818V4.9091L11.7818 1.47274C6.92182 -2.16817 0 1.29274 0 7.36365Z" fill="black"/>
</g>
<defs>
<clipPath id="clip0">
<rect width="72" height="54" fill="white"/>
</clipPath>
</defs>
</svg>
