<svg width="54" height="54" viewBox="0 0 54 54" fill="none" xmlns="http://www.w3.org/2000/svg">
<path d="M27 54C41.9117 54 54 41.9117 54 27C54 12.0883 41.9117 0 27 0C12.0883 0 0 12.0883 0 27C0 41.9117 12.0883 54 27 54Z" fill="black"/>
<path d="M12.3546 26.415L38.3871 16.3777C39.5954 15.9412 40.6506 16.6725 40.2591 18.4995L40.2614 18.4972L35.8289 39.3795C35.5004 40.86 34.6206 41.22 33.3899 40.5225L26.6399 35.5477L23.3841 38.6842C23.0241 39.0442 22.7204 39.348 22.0229 39.348L22.5021 32.4787L35.0121 21.177C35.5566 20.6977 34.8906 20.4277 34.1729 20.9047L18.7131 30.6382L12.0486 28.5592C10.6019 28.1002 10.5704 27.1125 12.3546 26.415Z" fill="white"/>
</svg>
